<svg width="96" height="96" viewBox="0 0 96 96" fill="none" xmlns="http://www.w3.org/2000/svg">
<rect width="96" height="96" rx="32" fill="black"/>
<mask id="mask0_109_77" style="mask-type:luminance" maskUnits="userSpaceOnUse" x="8" y="8" width="80" height="80">
<path d="M88 8H8V88H88V8Z" fill="white"/>
</mask>
<g mask="url(#mask0_109_77)">
<path d="M57.8501 77.1616L53.9488 73.2603M16.2751 57.6552H10.7578M22.7383 42.0501L18.837 38.1488M38.344 85.2414V79.7241M18.837 77.1616L22.7383 73.2603" stroke="white" stroke-opacity="0.73" stroke-width="6" stroke-linecap="round" stroke-linejoin="round"/>
<path d="M68.6891 27.3105L30.0684 65.9312M74.2063 46.6208H49.3787M42.758 57.6553H61.3436C62.0183 57.6553 62.3557 57.6553 62.6731 57.5791C62.9546 57.5115 63.2237 57.4 63.4705 57.2488C63.7489 57.0782 63.9875 56.8396 64.4646 56.3625L78.3442 42.4829C79.0034 41.8237 79.333 41.4941 79.5983 41.2023C85.3367 34.8893 85.3367 25.2489 79.5983 18.9359C79.333 18.6441 79.0034 18.3145 78.3442 17.6553C77.685 16.9961 77.3554 16.6664 77.0636 16.4012C70.7506 10.6628 61.1102 10.6628 54.7973 16.4012C54.5055 16.6664 54.1759 16.9961 53.5167 17.6553L39.637 31.5349C39.1599 32.012 38.9213 32.2506 38.7507 32.529C38.5995 32.7758 38.488 33.0449 38.4205 33.3264C38.3442 33.6439 38.3442 33.9812 38.3442 34.656V53.2415C38.3442 54.7865 38.3442 55.559 38.6449 56.1491C38.9094 56.6681 39.3314 57.0901 39.8505 57.3546C40.4406 57.6553 41.2131 57.6553 42.758 57.6553Z" stroke="white" stroke-width="5" stroke-linecap="round" stroke-linejoin="round"/>
</g>
</svg>
